<svg width="94" height="48" viewBox="0 0 94 48" fill="none" xmlns="http://www.w3.org/2000/svg">
<rect width="48" height="48" fill="#E65100"/>
<path d="M27 23H27.01" stroke="white" stroke-width="2" stroke-linecap="round" stroke-linejoin="round"/>
<path d="M23 27H23.01" stroke="white" stroke-width="2" stroke-linecap="round" stroke-linejoin="round"/>
<path d="M28 28H28.01" stroke="white" stroke-width="2" stroke-linecap="round" stroke-linejoin="round"/>
<path d="M14 28L34 34L28 14C24.6521 14.9179 21.6008 16.6914 19.1461 19.1461C16.6914 21.6008 14.9179 24.6521 14 28Z" stroke="white" stroke-width="2" stroke-linecap="round" stroke-linejoin="round"/>
<path d="M17.71 29.11C18.5215 26.4164 19.9873 23.9657 21.9765 21.9765C23.9657 19.9873 26.4164 18.5215 29.11 17.71" stroke="white" stroke-width="2" stroke-linecap="round" stroke-linejoin="round"/>
<path d="M56.5625 12V3.27273H60.3295C60.9773 3.27273 61.544 3.40057 62.0298 3.65625C62.5156 3.91193 62.8935 4.27131 63.1634 4.73438C63.4332 5.19744 63.5682 5.73864 63.5682 6.35795C63.5682 6.98295 63.429 7.52415 63.1506 7.98153C62.875 8.43892 62.4872 8.79119 61.9872 9.03835C61.4901 9.28551 60.9091 9.40909 60.2443 9.40909H57.9943V7.56818H59.767C60.0455 7.56818 60.2827 7.51989 60.4787 7.4233C60.6776 7.32386 60.8295 7.18324 60.9347 7.00142C61.0426 6.8196 61.0966 6.60511 61.0966 6.35795C61.0966 6.10795 61.0426 5.89489 60.9347 5.71875C60.8295 5.53977 60.6776 5.40341 60.4787 5.30966C60.2827 5.21307 60.0455 5.16477 59.767 5.16477H58.9318V12H56.5625ZM66.8068 3.27273V12H64.4375V3.27273H66.8068ZM67.9638 12V10.6875L72.0888 5.18182H67.9808V3.27273H75.1058V4.58523L70.9808 10.0909H75.0888V12H67.9638ZM76.2958 12V10.6875L80.4208 5.18182H76.3129V3.27273H83.4379V4.58523L79.3129 10.0909H83.4208V12H76.2958ZM86.8608 12H84.304L87.1847 3.27273H90.4233L93.304 12H90.7472L88.8381 5.67614H88.7699L86.8608 12ZM86.3835 8.55682H91.1903V10.3295H86.3835V8.55682ZM56.5625 27V18.2727H60.3466C61.0114 18.2727 61.5696 18.3622 62.0213 18.5412C62.4759 18.7202 62.8182 18.973 63.0483 19.2997C63.2813 19.6264 63.3977 20.0114 63.3977 20.4545C63.3977 20.7756 63.3267 21.0682 63.1847 21.3324C63.0455 21.5966 62.8494 21.8182 62.5966 21.9972C62.3438 22.1733 62.0483 22.2955 61.7102 22.3636V22.4489C62.0852 22.4631 62.4261 22.5582 62.733 22.7344C63.0398 22.9077 63.2841 23.1477 63.4659 23.4545C63.6477 23.7585 63.7386 24.1165 63.7386 24.5284C63.7386 25.0057 63.6136 25.4304 63.3636 25.8026C63.1165 26.1747 62.7642 26.4673 62.3068 26.6804C61.8494 26.8935 61.304 27 60.6705 27H56.5625ZM58.9318 25.108H60.0398C60.4375 25.108 60.7358 25.0341 60.9347 24.8864C61.1335 24.7358 61.233 24.5142 61.233 24.2216C61.233 24.017 61.1861 23.8437 61.0923 23.7017C60.9986 23.5597 60.8651 23.4517 60.6918 23.3778C60.5213 23.304 60.3153 23.267 60.0739 23.267H58.9318V25.108ZM58.9318 21.8011H59.9034C60.1108 21.8011 60.294 21.7685 60.4531 21.7031C60.6122 21.6378 60.7358 21.544 60.8239 21.4219C60.9148 21.2969 60.9602 21.1449 60.9602 20.9659C60.9602 20.696 60.8636 20.4901 60.6705 20.348C60.4773 20.2031 60.233 20.1307 59.9375 20.1307H58.9318V21.8011ZM73.0327 22.6364C73.0327 23.608 72.8438 24.4276 72.4659 25.0952C72.0881 25.7599 71.5781 26.2642 70.9361 26.608C70.294 26.9489 69.5781 27.1193 68.7884 27.1193C67.9929 27.1193 67.2741 26.9474 66.6321 26.6037C65.9929 26.2571 65.4844 25.7514 65.1065 25.0866C64.7315 24.419 64.544 23.6023 64.544 22.6364C64.544 21.6648 64.7315 20.8466 65.1065 20.1818C65.4844 19.5142 65.9929 19.0099 66.6321 18.669C67.2741 18.3253 67.9929 18.1534 68.7884 18.1534C69.5781 18.1534 70.294 18.3253 70.9361 18.669C71.5781 19.0099 72.0881 19.5142 72.4659 20.1818C72.8438 20.8466 73.0327 21.6648 73.0327 22.6364ZM70.5952 22.6364C70.5952 22.1136 70.5256 21.6733 70.3864 21.3153C70.25 20.9545 70.0469 20.6818 69.777 20.4972C69.5099 20.3097 69.1804 20.2159 68.7884 20.2159C68.3963 20.2159 68.0653 20.3097 67.7955 20.4972C67.5284 20.6818 67.3253 20.9545 67.1861 21.3153C67.0497 21.6733 66.9815 22.1136 66.9815 22.6364C66.9815 23.1591 67.0497 23.6009 67.1861 23.9616C67.3253 24.3196 67.5284 24.5923 67.7955 24.7798C68.0653 24.9645 68.3963 25.0568 68.7884 25.0568C69.1804 25.0568 69.5099 24.9645 69.777 24.7798C70.0469 24.5923 70.25 24.3196 70.3864 23.9616C70.5256 23.6009 70.5952 23.1591 70.5952 22.6364ZM76.0827 18.2727L77.5146 20.8125H77.5827L79.0316 18.2727H81.6737L79.0657 22.6364L81.7759 27H79.0657L77.5827 24.4091H77.5146L76.0316 27H73.3384L76.0146 22.6364L73.4237 18.2727H76.0827ZM62.2301 36.1534C62.1932 36.0028 62.1349 35.8707 62.0554 35.7571C61.9759 35.6406 61.8764 35.5426 61.7571 35.4631C61.6406 35.3807 61.5043 35.3196 61.348 35.2798C61.1946 35.2372 61.0256 35.2159 60.8409 35.2159C60.4432 35.2159 60.1037 35.3111 59.8224 35.5014C59.544 35.6918 59.331 35.9659 59.1832 36.3239C59.0384 36.6818 58.9659 37.1136 58.9659 37.6193C58.9659 38.1307 59.0355 38.5682 59.1747 38.9318C59.3139 39.2955 59.5213 39.5739 59.7969 39.767C60.0724 39.9602 60.4148 40.0568 60.8239 40.0568C61.1847 40.0568 61.4844 40.0043 61.723 39.8991C61.9645 39.794 62.1449 39.6449 62.2642 39.4517C62.3835 39.2585 62.4432 39.0312 62.4432 38.7699L62.8523 38.8125H60.858V37.125H64.7273V38.3352C64.7273 39.1307 64.5582 39.8111 64.2202 40.3764C63.8849 40.9389 63.4219 41.3707 62.831 41.6719C62.2429 41.9702 61.5682 42.1193 60.8068 42.1193C59.9574 42.1193 59.2116 41.9389 58.5696 41.5781C57.9276 41.2173 57.4261 40.7031 57.0653 40.0355C56.7074 39.3679 56.5284 38.5739 56.5284 37.6534C56.5284 36.9318 56.6378 36.2926 56.8565 35.7358C57.0781 35.179 57.3849 34.7088 57.777 34.3253C58.169 33.9389 58.6222 33.6477 59.1364 33.4517C59.6506 33.2528 60.2017 33.1534 60.7898 33.1534C61.3068 33.1534 61.7869 33.2273 62.2301 33.375C62.6761 33.5199 63.0696 33.7273 63.4105 33.9972C63.7543 34.2642 64.0313 34.581 64.2415 34.9474C64.4517 35.3139 64.5795 35.7159 64.625 36.1534H62.2301ZM67.8295 42H65.2727L68.1534 33.2727H71.392L74.2727 42H71.7159L69.8068 35.6761H69.7386L67.8295 42ZM67.3523 38.5568H72.1591V40.3295H67.3523V38.5568ZM75.1133 33.2727H78.0621L80.0906 38.2159H80.1928L82.2212 33.2727H85.1701V42H82.8519V36.9545H82.7837L80.8406 41.9318H79.4428L77.4996 36.9205H77.4315V42H75.1133V33.2727ZM86.293 42V33.2727H92.5827V35.1818H88.6623V36.6818H92.2589V38.5909H88.6623V40.0909H92.5657V42H86.293Z" fill="black"/>
</svg>
